<svg width="15" height="15" viewBox="0 0 15 15" fill="none" xmlns="http://www.w3.org/2000/svg">
<g id="&#240;&#159;&#166;&#134; icon &#34;paper plane&#34;">
<path id="Vector" d="M0.473719 7.82837L3.19881 9.02118L11.052 4.73698L6.31545 10.2629L13.1045 13.3543C13.2055 13.3993 13.3137 13.4206 13.4203 13.4206C13.5632 13.4206 13.7045 13.382 13.8308 13.3054C14.0502 13.172 14.1915 12.9399 14.2089 12.6833L14.9983 0.841968C15.0165 0.562513 14.8862 0.294898 14.6549 0.137013C14.4244 -0.0200819 14.1284 -0.0437646 13.8742 0.0746489L0.453983 6.39004C0.172949 6.52266 -0.00388238 6.80606 6.47362e-05 7.11552C0.00480128 7.42497 0.189526 7.70364 0.473719 7.82837ZM4.73661 14.9995L8.50689 13.1712L4.73661 11.4123V14.9995Z" fill="white"/>
</g>
</svg>
